<?xml version="1.0" encoding="UTF-8" standalone="no"?>
<svg
   xmlns:dc="http://purl.org/dc/elements/1.1/"
   xmlns:cc="http://creativecommons.org/ns#"
   xmlns:rdf="http://www.w3.org/1999/02/22-rdf-syntax-ns#"
   xmlns:svg="http://www.w3.org/2000/svg"
   xmlns="http://www.w3.org/2000/svg"
   xmlns:sodipodi="http://sodipodi.sourceforge.net/DTD/sodipodi-0.dtd"
   xmlns:inkscape="http://www.inkscape.org/namespaces/inkscape"
   sodipodi:docname="gitlogoink.svg"
   inkscape:version="1.0.1 (3bc2e813f5, 2020-09-07)"
   id="svg8"
   version="1.1"
   viewBox="0 0 137.44044 69.714478"
   height="69.714478mm"
   width="137.44044mm">
  <defs
     id="defs2">
    <marker
       style="overflow:visible"
       id="Arrow1Lstart"
       refX="0"
       refY="0"
       orient="auto"
       inkscape:stockid="Arrow1Lstart"
       inkscape:isstock="true">
      <path
         transform="matrix(0.8,0,0,0.8,10,0)"
         style="fill-rule:evenodd;stroke:#000000;stroke-width:1pt"
         d="M 0,0 5,-5 -12.5,0 5,5 Z"
         id="path1037" />
    </marker>
    <rect
       x="59.200199"
       y="132.03114"
       width="59.467468"
       height="16.437077"
       id="rect1044" />
    <rect
       x="96.083397"
       y="57.195679"
       width="90.470734"
       height="22.717911"
       id="rect858" />
    <rect
       x="96.383926"
       y="56.885418"
       width="100.73066"
       height="27.592262"
       id="rect957" />
    <inkscape:path-effect
       effect="skeletal"
       id="path-effect39"
       is_visible="true"
       lpeversion="1"
       pattern="M 0,5 C 0,2.24 2.24,0 5,0 7.76,0 10,2.24 10,5 10,7.76 7.76,10 5,10 2.24,10 0,7.76 0,5 Z"
       copytype="single_stretched"
       prop_scale="1"
       scale_y_rel="false"
       spacing="0"
       normal_offset="0"
       tang_offset="0"
       prop_units="false"
       vertical_pattern="false"
       hide_knot="false"
       fuse_tolerance="0" />
    <inkscape:path-effect
       effect="skeletal"
       id="path-effect35"
       is_visible="true"
       lpeversion="1"
       pattern="M 0,5 C 0,2.24 2.24,0 5,0 7.76,0 10,2.24 10,5 10,7.76 7.76,10 5,10 2.24,10 0,7.76 0,5 Z"
       copytype="single_stretched"
       prop_scale="1"
       scale_y_rel="false"
       spacing="0"
       normal_offset="0"
       tang_offset="0"
       prop_units="false"
       vertical_pattern="false"
       hide_knot="false"
       fuse_tolerance="0" />
    <rect
       x="30.936447"
       y="129.09119"
       width="50.647575"
       height="13.630746"
       id="rect19" />
    <rect
       x="47.841244"
       y="109.84778"
       width="71.8955"
       height="23.252449"
       id="rect12" />
  </defs>
  <sodipodi:namedview
     id="base"
     pagecolor="#ffffff"
     bordercolor="#666666"
     borderopacity="1.0"
     inkscape:pageopacity="0.0"
     inkscape:pageshadow="2"
     inkscape:zoom="1.4"
     inkscape:cx="82.689124"
     inkscape:cy="365.11101"
     inkscape:document-units="mm"
     inkscape:current-layer="layer1"
     inkscape:document-rotation="0"
     showgrid="false"
     inkscape:window-width="1858"
     inkscape:window-height="1057"
     inkscape:window-x="54"
     inkscape:window-y="-8"
     inkscape:window-maximized="1"
     inkscape:snap-global="true" />
  <metadata
     id="metadata5">
    <rdf:RDF>
      <cc:Work
         rdf:about="">
        <dc:format>image/svg+xml</dc:format>
        <dc:type
           rdf:resource="http://purl.org/dc/dcmitype/StillImage" />
        <dc:title></dc:title>
      </cc:Work>
    </rdf:RDF>
  </metadata>
  <g
     inkscape:label="Layer 1"
     inkscape:groupmode="layer"
     id="layer1"
     transform="translate(-38.459381,-56.614722)">
    <path
       d="m 67.330084,110.38261 q -1.289197,0 -2.327714,-0.78784 -1.03852,-0.82365 -1.611496,-2.18447 -0.572977,-1.39663 -0.572977,-3.11556 0,-3.9034 2.650017,-5.479081 2.685823,-1.611496 6.231113,-1.826363 0,-1.933793 -0.250667,-2.86488 -0.250666,-0.931083 -1.217576,-0.931083 -0.82365,0 -1.253383,0.644597 -0.429734,0.644596 -0.537164,1.647306 l -4.90611,-0.859463 q 0.35811,-2.757447 2.256094,-3.93921 1.897983,-1.181763 4.440563,-1.181763 3.258803,0 4.870296,1.718926 1.647307,1.71893 1.647307,4.476377 V 106.1211 q 0,1.68312 0.537167,3.5811 l -4.90611,0.42973 -0.572974,-2.47095 q -0.6446,1.14595 -1.897983,1.93379 -1.253386,0.78784 -2.578393,0.78784 z m 2.327716,-3.5811 q 0.608787,0 1.002707,-0.2865 0.429733,-0.2865 1.03852,-0.93108 v -5.586517 q -1.79055,0 -2.86488,0.966897 -1.07433,0.9669 -1.07433,3.00812 0,1.36082 0.465543,2.11285 0.501354,0.71622 1.43244,0.71622 z"
       style="font-style:normal;font-variant:normal;font-weight:normal;font-stretch:normal;font-size:10.5833px;line-height:1.25;font-family:'Francois One';-inkscape-font-specification:'Francois One';white-space:pre;fill:#000000;fill-opacity:1;stroke:#ffffff;stroke-width:5;stroke-linecap:butt;stroke-miterlimit:4;stroke-dasharray:none;stroke-opacity:1;paint-order:stroke markers fill"
       id="path862" />
    <path
       d="m 82.506037,90.18521 5.013533,-0.429734 v 2.57839 q 1.539866,-1.360816 3.008133,-2.077036 1.504033,-0.75203 2.757433,-0.75203 1.897966,0 3.079733,1.39663 1.2176,1.360816 1.2176,3.68853 v 15.11224 l -5.013566,0.42973 V 96.487943 q 0,-2.685823 -1.826333,-2.685823 -0.6088,0 -1.360834,0.35811 -0.716233,0.35811 -1.862166,1.038516 V 109.7022 l -5.013533,0.42973 z"
       style="font-style:normal;font-variant:normal;font-weight:normal;font-stretch:normal;font-size:10.5833px;line-height:1.25;font-family:'Francois One';-inkscape-font-specification:'Francois One';white-space:pre;fill:#000000;fill-opacity:1;stroke:#ffffff;stroke-width:5.5;stroke-linecap:butt;stroke-miterlimit:4;stroke-dasharray:none;stroke-opacity:1;paint-order:stroke markers fill"
       id="path864" />
    <path
       d="m 107.37453,110.38261 q -1.28917,0 -2.3277,-0.78784 -1.03853,-0.82365 -1.6115,-2.18447 -0.57297,-1.39663 -0.57297,-3.11556 0,-3.9034 2.65,-5.479081 2.68584,-1.611496 6.23114,-1.826363 0,-1.933793 -0.25074,-2.86488 -0.25073,-0.931083 -1.21757,-0.931083 -0.82363,0 -1.25336,0.644597 -0.42974,0.644596 -0.53717,1.647306 l -4.90613,-0.859463 q 0.35813,-2.757447 2.2561,-3.93921 1.898,-1.181763 4.44056,-1.181763 3.2588,0 4.8703,1.718926 1.6473,1.71893 1.6473,4.476377 V 106.1211 q 0,1.68312 0.53717,3.5811 l -4.9061,0.42973 -0.57297,-2.47095 q -0.6446,1.14595 -1.898,1.93379 -1.25336,0.78784 -2.5784,0.78784 z m 2.32773,-3.5811 q 0.6088,0 1.0027,-0.2865 0.42974,-0.2865 1.03854,-0.93108 v -5.586517 q -1.79057,0 -2.86491,0.966897 -1.07433,0.9669 -1.07433,3.00812 0,1.36082 0.46557,2.11285 0.50133,0.71622 1.43243,0.71622 z"
       style="font-style:normal;font-variant:normal;font-weight:normal;font-stretch:normal;font-size:10.5833px;line-height:1.25;font-family:'Francois One';-inkscape-font-specification:'Francois One';white-space:pre;fill:#000000;fill-opacity:1;stroke:#ffffff;stroke-width:5;stroke-linecap:butt;stroke-miterlimit:4;stroke-dasharray:none;stroke-opacity:1;paint-order:stroke markers fill"
       id="path866" />
    <path
       d="m 129.82708,110.31099 q -2.43513,0 -4.11823,-1.21757 -1.68314,-1.25339 -1.68314,-4.40476 V 93.551443 h -2.79326 l 0.21486,-3.795967 h 2.72164 l 0.50136,-4.368943 4.36894,-0.608786 v 4.977729 h 4.1541 l -0.21487,3.795967 h -3.9034 v 11.101407 q 0,1.07433 0.53717,1.53987 0.53713,0.46555 1.57566,0.46555 0.57297,0 1.9338,-0.21487 v 3.47367 q -0.14313,0.0358 -1.14596,0.21486 -0.9669,0.17907 -2.14867,0.17907 z"
       style="font-style:normal;font-variant:normal;font-weight:normal;font-stretch:normal;font-size:10.5833px;line-height:1.25;font-family:'Francois One';-inkscape-font-specification:'Francois One';white-space:pre;fill:#000000;fill-opacity:1;stroke:#ffffff;stroke-width:5;stroke-linecap:butt;stroke-miterlimit:4;stroke-dasharray:none;stroke-opacity:1;paint-order:stroke markers fill"
       id="path868" />
    <path
       d="m 133.60326,118.14916 c 0.21589,-3.51005 1.07481,-4.4092 1.07481,-4.4092 -0.32314,-0.24336 -0.67556,-0.67484 -0.67556,-0.67484 1.3252,-1.14992 4.59453,-1.47115 6.05914,-1.32132 0,0 -0.96115,0.71411 -2.22507,2.31907 -1.26396,1.60497 -2.40732,6.00057 0.53906,6.05245 2.94638,0.0519 3.62363,-9.13586 3.62363,-11.09353 v -1.00271 l -5.76556,-18.01293 5.44326,-0.250667 2.82907,12.641287 2.68583,-12.533854 4.548,-0.0358 c 0,0 -4.44929,17.106424 -5.1568,19.731864 -0.7075,2.62543 -2.82967,14.21157 -7.59311,14.26926 -4.76345,0.0577 -5.60244,-2.16904 -5.3867,-5.67908 z"
       style="font-style:normal;font-variant:normal;font-weight:normal;font-stretch:normal;font-size:10.5833px;line-height:1.25;font-family:'Francois One';-inkscape-font-specification:'Francois One';white-space:pre;fill:#000000;fill-opacity:1;stroke:#ffffff;stroke-width:5;stroke-linecap:butt;stroke-miterlimit:4;stroke-dasharray:none;stroke-opacity:1;paint-order:stroke markers fill"
       id="path870"
       sodipodi:nodetypes="zccszzscccccczzz" />
    <path
       d="m 165.95152,110.38261 -4.08243,-10.02708 -1.6473,2.18447 v 7.37707 h -5.01357 V 83.703417 l 5.01357,-0.644597 v 13.32169 l 5.12096,-6.625034 h 5.44327 l -5.65813,7.269634 5.26419,11.85344 z"
       style="font-style:normal;font-variant:normal;font-weight:normal;font-stretch:normal;font-size:10.5833px;line-height:1.25;font-family:'Francois One';-inkscape-font-specification:'Francois One';white-space:pre;fill:#000000;fill-opacity:1;stroke:#ffffff;stroke-width:5;stroke-linecap:butt;stroke-miterlimit:4;stroke-dasharray:none;stroke-opacity:1;paint-order:stroke markers fill"
       id="path872" />
    <path
       id="path989"
       style="color:#000000;font-style:normal;font-variant:normal;font-weight:normal;font-stretch:normal;font-size:medium;line-height:normal;font-family:sans-serif;font-variant-ligatures:normal;font-variant-position:normal;font-variant-caps:normal;font-variant-numeric:normal;font-variant-alternates:normal;font-variant-east-asian:normal;font-feature-settings:normal;font-variation-settings:normal;text-indent:0;text-align:start;text-decoration:none;text-decoration-line:none;text-decoration-style:solid;text-decoration-color:#000000;letter-spacing:normal;word-spacing:normal;text-transform:none;writing-mode:lr-tb;direction:ltr;text-orientation:mixed;dominant-baseline:auto;baseline-shift:baseline;text-anchor:start;white-space:normal;shape-padding:0;shape-margin:0;inline-size:0;clip-rule:nonzero;display:inline;overflow:visible;visibility:visible;opacity:1;isolation:auto;mix-blend-mode:normal;color-interpolation:sRGB;color-interpolation-filters:linearRGB;solid-color:#000000;solid-opacity:1;vector-effect:none;fill:#000000;fill-opacity:1;fill-rule:nonzero;stroke:#ffffff;stroke-width:18.8976;stroke-linecap:square;stroke-linejoin:miter;stroke-miterlimit:4;stroke-dasharray:none;stroke-dashoffset:0;stroke-opacity:1;paint-order:markers stroke fill;color-rendering:auto;image-rendering:auto;shape-rendering:auto;text-rendering:auto;enable-background:accumulate;stop-color:#000000;stop-opacity:1"
       d="m 319.34766,223.43359 c -0.69066,0.0106 -1.3945,0.0335 -2.11133,0.0684 -3.8231,0.18594 -7.99705,0.74145 -12.3418,1.88282 -12.31689,3.23562 -20.60345,8.49416 -31.11523,16.16601 -2.78398,2.03185 -5.56711,4.18061 -8.33008,6.41406 -28.50452,-1.61863 -59.52156,2.43043 -81.12305,29.68946 -3.05362,3.85338 -4.92808,7.94748 -4.69531,12.27734 0.23276,4.32986 2.7914,8.04992 5.93555,10.48828 5.7899,4.49022 13.85485,6.54857 23.30859,7.91406 -11.07317,17.28065 -17.57119,35.33856 -19.85156,42.26758 l -6.60156,-2.64062 a 5.6692913,5.6692913 0 0 0 -2.28907,-0.40625 5.6692913,5.6692913 0 0 0 -5.07812,3.55664 5.6692913,5.6692913 0 0 0 3.15234,7.375 l 0.46094,0.18359 c -0.26811,0.43084 -0.50823,0.88072 -0.69336,1.36719 l -22.60352,59.39648 c -1.923,5.05312 1.62176,11.05884 7.94922,13.4668 l 3.37696,1.28516 c 6.32745,2.40796 12.96957,0.27773 14.89257,-4.77539 l 10.25782,-26.95313 a 17.374687,17.374687 0 0 0 2.36523,0.16406 17.374687,17.374687 0 0 0 17.375,-17.375 17.374687,17.374687 0 0 0 -7.69922,-14.42968 l 0.30469,-0.80079 c 0.12695,-0.33358 0.22659,-0.67308 0.30664,-1.01367 l 0.85742,0.34375 a 5.6692913,5.6692913 0 0 0 7.36719,-3.16015 5.6692913,5.6692913 0 0 0 -3.16016,-7.36719 l -4.68945,-1.875 c 17.1722,-7.85486 26.95583,-18.98791 30.41602,-30.11719 1.80173,-5.79506 1.58829,-11.58765 -0.13282,-16.64062 15.23673,0.15751 30.80902,-0.9725 42.5625,-2.69336 25.27356,-3.70039 39.6023,-1.37122 47.22266,1.41797 3.81018,1.39459 5.96681,2.88769 7.11523,3.875 1.14842,0.9873 1.00586,0.95312 1.00586,0.95312 a 5.6692913,5.6692913 0 0 0 7.71289,2.19141 5.6692913,5.6692913 0 0 0 2.19336,-7.71289 c 0,0 -1.30811,-2.12059 -3.52148,-4.02344 -2.21338,-1.90285 -5.61674,-4.10106 -10.60742,-5.92774 -9.98136,-3.65334 -26.21174,-5.87331 -52.75977,-1.98632 -5.64378,0.82632 -12.40347,1.50284 -19.60937,1.95312 2.53063,-1.38982 5.03772,-2.89405 7.46679,-4.53711 8.26062,-5.58761 15.72836,-12.56697 19.86524,-21.24414 1.62976,-3.41846 2.52148,-7.16349 2.70703,-11.04492 8.14007,1.0095 16.09255,2.0993 23.56445,2.82813 12.74769,1.24343 24.25986,1.64147 33.79492,-2.62696 8.01009,-3.58577 13.02688,-7.47572 14.52735,-13.24414 0.75023,-2.88421 0.22588,-5.88625 -0.88672,-8.18555 -1.1126,-2.29929 -2.68477,-4.06288 -4.36133,-5.5664 -4.13417,-3.70751 -9.27307,-6.2181 -12.61523,-7.60547 l -0.0156,-0.16797 -3.53711,-1.1582 c 0,0 -0.0496,-0.0133 -0.0508,-0.0137 a 5.6692913,5.6692913 0 0 0 -0.31445,-0.0899 c -0.88115,-0.27658 -7.5946,-2.29116 -17.26953,-2.14258 z m 0.0273,11.33789 c 1.6358,-0.006 3.11027,0.0981 4.56445,0.20118 -2.67467,2.08536 -5.57709,4.31469 -9.52343,6.16406 -7.38958,3.46296 -16.10487,5.53548 -25.00977,3.64648 5.73473,-3.64715 11.22081,-6.56016 18.36719,-8.4375 3.49502,-0.91814 6.84325,-1.36539 9.90625,-1.52734 0.58605,-0.031 1.15004,-0.0449 1.69531,-0.0469 z m 18.20312,3.47852 c 2.67392,1.2535 5.98395,3.00041 7.99805,4.80664 0.9449,0.84738 1.53281,1.64204 1.73438,2.05859 0.20156,0.41656 0.14514,0.29097 0.11718,0.39844 -0.0559,0.21494 -1.56728,2.77794 -8.19335,5.74414 -5.2946,2.37016 -13.91871,2.79902 -24.43165,2.00391 1.53104,-0.57498 3.01468,-1.19522 4.42774,-1.85742 6.07307,-2.84602 11.10533,-6.33637 14.77734,-9.58789 1.37785,-1.22007 2.56624,-2.39657 3.57031,-3.56641 z m -84.86328,20.70117 c -14.66589,13.419 -27.82616,28.03625 -36.38476,38.89453 -1.20342,-0.12383 -2.38657,-0.25667 -3.53906,-0.40625 -9.65763,-1.25342 -17.43021,-3.77093 -20.2793,-5.98047 -1.42455,-1.10476 -1.53413,-1.56875 -1.56445,-2.13281 -0.0303,-0.56406 0.24697,-2.08156 2.26562,-4.6289 15.87953,-20.03846 37.02471,-25.51862 59.50195,-25.7461 z m 17.23243,0.6875 c 1.73998,0.14004 3.4774,0.29695 5.21093,0.46875 0.0522,2.5222 -0.41268,4.99163 -1.59179,7.46485 -2.81495,5.90439 -8.79376,11.87184 -15.98243,16.73437 -7.18866,4.86253 -15.50703,8.64839 -22.4121,10.76172 -0.55056,0.1685 -0.87901,0.15579 -1.41016,0.30273 9.94949,-11.52869 22.4869,-24.33236 36.18555,-35.73242 z m -47.95508,50.05664 c 0.22111,0.0147 0.44031,0.0309 0.66211,0.0449 2.70506,2.82818 3.72387,7.55221 1.80664,13.71875 -2.10337,6.76523 -8.49821,14.86897 -21.04492,21.42969 3.60098,-9.54758 9.14139,-21.87465 18.57617,-35.19336 z"
       transform="scale(0.26458333)" />
    <path
       id="path1005"
       style="color:#000000;font-style:normal;font-variant:normal;font-weight:normal;font-stretch:normal;font-size:medium;line-height:normal;font-family:sans-serif;font-variant-ligatures:normal;font-variant-position:normal;font-variant-caps:normal;font-variant-numeric:normal;font-variant-alternates:normal;font-variant-east-asian:normal;font-feature-settings:normal;font-variation-settings:normal;text-indent:0;text-align:start;text-decoration:none;text-decoration-line:none;text-decoration-style:solid;text-decoration-color:#000000;letter-spacing:normal;word-spacing:normal;text-transform:none;writing-mode:lr-tb;direction:ltr;text-orientation:mixed;dominant-baseline:auto;baseline-shift:baseline;text-anchor:start;white-space:normal;shape-padding:0;shape-margin:0;inline-size:0;clip-rule:nonzero;display:inline;overflow:visible;visibility:visible;opacity:1;isolation:auto;mix-blend-mode:normal;color-interpolation:sRGB;color-interpolation-filters:linearRGB;solid-color:#000000;solid-opacity:1;vector-effect:none;fill:#ffffff;fill-opacity:1;fill-rule:nonzero;stroke:none;stroke-width:1;stroke-linecap:round;stroke-linejoin:miter;stroke-miterlimit:4;stroke-dasharray:none;stroke-dashoffset:0;stroke-opacity:1;color-rendering:auto;image-rendering:auto;shape-rendering:auto;text-rendering:auto;enable-background:accumulate;stop-color:#000000;stop-opacity:1"
       d="m 52.275315,99.605481 a 0.5,0.5 0 0 0 -0.44545,0.269746 l -0.737423,1.418003 -1.418518,-0.73845 a 0.5,0.5 0 0 0 -0.230476,-0.0548 0.5,0.5 0 0 0 -0.445453,0.26768 0.5,0.5 0 0 0 0.212908,0.67593 l 1.419553,0.73794 -0.737941,1.41852 a 0.5,0.5 0 0 0 0.212907,0.67334 0.5,0.5 0 0 0 0.673862,-0.21291 l 0.737423,-1.418 1.420585,0.73846 a 0.5,0.5 0 0 0 0.673859,-0.21291 0.5,0.5 0 0 0 -0.212907,-0.67386 l -1.419551,-0.73949 0.737939,-1.41852 a 0.5,0.5 0 0 0 -0.212908,-0.673863 0.5,0.5 0 0 0 -0.228409,-0.0568 z" />
    <text
       xml:space="preserve"
       id="text955"
       style="font-style:normal;font-weight:normal;font-size:10.5833px;line-height:1.25;font-family:sans-serif;white-space:pre;shape-inside:url(#rect957);fill:#000000;fill-opacity:1;stroke:none;" />
    <text
       xml:space="preserve"
       style="font-style:normal;font-weight:normal;font-size:6.42173px;line-height:1.25;font-family:sans-serif;fill:#000000;fill-opacity:1;stroke:#ffffff;stroke-width:0.167;stroke-miterlimit:4;stroke-dasharray:none;stroke-opacity:1"
       id="text1050"
       x="49.985996"
       y="118.81748"><tspan
         id="tspan1048"
         style="font-style:normal;font-variant:normal;font-weight:normal;font-stretch:normal;font-family:'Francois One';-inkscape-font-specification:'Francois One';stroke:#ffffff;stroke-width:0.167;stroke-miterlimit:4;stroke-dasharray:none;stroke-opacity:1">profesjonalny sklep wędkarski</tspan></text>
  </g>
</svg>
