<svg width="58.967mm" height="61.018mm" version="1.1" viewBox="0 0 58.967 61.018" xmlns="http://www.w3.org/2000/svg">
 <g transform="translate(-38.459 -56.615)">
  <path transform="scale(.26458)" d="m319.35 223.43c-0.69066 0.0106-1.3945 0.0335-2.1113 0.0684-3.8231 0.18594-7.997 0.74145-12.342 1.8828-12.317 3.2356-20.603 8.4942-31.115 16.166-2.784 2.0318-5.5671 4.1806-8.3301 6.4141-28.505-1.6186-59.522 2.4304-81.123 29.689-3.0536 3.8534-4.9281 7.9475-4.6953 12.277 0.23276 4.3299 2.7914 8.0499 5.9356 10.488 5.7899 4.4902 13.855 6.5486 23.309 7.9141-11.073 17.281-17.571 35.339-19.852 42.268l-6.6016-2.6406a5.6693 5.6693 0 0 0-2.2891-0.40625 5.6693 5.6693 0 0 0-5.0781 3.5566 5.6693 5.6693 0 0 0 3.1523 7.375l0.46094 0.18359c-0.26811 0.43084-0.50823 0.88072-0.69336 1.3672l-22.604 59.396c-1.923 5.0531 1.6218 11.059 7.9492 13.467l3.377 1.2852c6.3274 2.408 12.97 0.27773 14.893-4.7754l10.258-26.953a17.375 17.375 0 0 0 2.3652 0.16406 17.375 17.375 0 0 0 17.375-17.375 17.375 17.375 0 0 0-7.6992-14.43l0.30469-0.80079c0.12695-0.33358 0.22659-0.67308 0.30664-1.0137l0.85742 0.34375a5.6693 5.6693 0 0 0 7.3672-3.1602 5.6693 5.6693 0 0 0-3.1602-7.3672l-4.6894-1.875c17.172-7.8549 26.956-18.988 30.416-30.117 1.8017-5.7951 1.5883-11.588-0.13282-16.641 15.237 0.15751 30.809-0.9725 42.562-2.6934 25.274-3.7004 39.602-1.3712 47.223 1.418 3.8102 1.3946 5.9668 2.8877 7.1152 3.875 1.1484 0.9873 1.0059 0.95312 1.0059 0.95312a5.6693 5.6693 0 0 0 7.7129 2.1914 5.6693 5.6693 0 0 0 2.1934-7.7129s-1.3081-2.1206-3.5215-4.0234c-2.2134-1.9028-5.6167-4.1011-10.607-5.9277-9.9814-3.6533-26.212-5.8733-52.76-1.9863-5.6438 0.82632-12.403 1.5028-19.609 1.9531 2.5306-1.3898 5.0377-2.894 7.4668-4.5371 8.2606-5.5876 15.728-12.567 19.865-21.244 1.6298-3.4185 2.5215-7.1635 2.707-11.045 8.1401 1.0095 16.093 2.0993 23.564 2.8281 12.748 1.2434 24.26 1.6415 33.795-2.627 8.0101-3.5858 13.027-7.4757 14.527-13.244 0.75023-2.8842 0.22588-5.8862-0.88672-8.1856-1.1126-2.2993-2.6848-4.0629-4.3613-5.5664-4.1342-3.7075-9.2731-6.2181-12.615-7.6055l-0.0156-0.16797-3.5371-1.1582s-0.0496-0.0133-0.0508-0.0137a5.6693 5.6693 0 0 0-0.31445-0.0899c-0.88115-0.27658-7.5946-2.2912-17.27-2.1426zm0.0273 11.338c1.6358-6e-3 3.1103 0.0981 4.5644 0.20118-2.6747 2.0854-5.5771 4.3147-9.5234 6.1641-7.3896 3.463-16.105 5.5355-25.01 3.6465 5.7347-3.6472 11.221-6.5602 18.367-8.4375 3.495-0.91814 6.8432-1.3654 9.9062-1.5273 0.58605-0.031 1.15-0.0449 1.6953-0.0469zm18.203 3.4785c2.6739 1.2535 5.984 3.0004 7.998 4.8066 0.9449 0.84738 1.5328 1.642 1.7344 2.0586 0.20156 0.41656 0.14514 0.29097 0.11718 0.39844-0.0559 0.21494-1.5673 2.7779-8.1934 5.7441-5.2946 2.3702-13.919 2.799-24.432 2.0039 1.531-0.57498 3.0147-1.1952 4.4277-1.8574 6.0731-2.846 11.105-6.3364 14.777-9.5879 1.3778-1.2201 2.5662-2.3966 3.5703-3.5664zm-84.863 20.701c-14.666 13.419-27.826 28.036-36.385 38.895-1.2034-0.12383-2.3866-0.25667-3.5391-0.40625-9.6576-1.2534-17.43-3.7709-20.279-5.9805-1.4246-1.1048-1.5341-1.5688-1.5644-2.1328-0.0303-0.56406 0.24697-2.0816 2.2656-4.6289 15.88-20.038 37.025-25.519 59.502-25.746zm17.232 0.6875c1.74 0.14004 3.4774 0.29695 5.2109 0.46875 0.0522 2.5222-0.41268 4.9916-1.5918 7.4648-2.815 5.9044-8.7938 11.872-15.982 16.734-7.1887 4.8625-15.507 8.6484-22.412 10.762-0.55056 0.1685-0.87901 0.15579-1.4102 0.30273 9.9495-11.529 22.487-24.332 36.186-35.732zm-47.955 50.057c0.22111 0.0147 0.44031 0.0309 0.66211 0.0449 2.7051 2.8282 3.7239 7.5522 1.8066 13.719-2.1034 6.7652-8.4982 14.869-21.045 21.43 3.601-9.5476 9.1414-21.875 18.576-35.193z" color="#000000" color-rendering="auto" dominant-baseline="auto" image-rendering="auto" shape-rendering="auto" solid-color="#000000" stop-color="#000000" stroke="#fff" stroke-linecap="square" stroke-width="18.898" style="font-feature-settings:normal;font-variant-alternates:normal;font-variant-caps:normal;font-variant-east-asian:normal;font-variant-ligatures:normal;font-variant-numeric:normal;font-variant-position:normal;font-variation-settings:normal;inline-size:0;isolation:auto;mix-blend-mode:normal;paint-order:markers stroke fill;shape-margin:0;shape-padding:0;text-decoration-color:#000000;text-decoration-line:none;text-decoration-style:solid;text-indent:0;text-orientation:mixed;text-transform:none;white-space:normal"/>
  <path d="m52.275 99.605a0.5 0.5 0 0 0-0.44545 0.26975l-0.73742 1.418-1.4185-0.73845a0.5 0.5 0 0 0-0.23048-0.0548 0.5 0.5 0 0 0-0.44545 0.26768 0.5 0.5 0 0 0 0.21291 0.67593l1.4196 0.73794-0.73794 1.4185a0.5 0.5 0 0 0 0.21291 0.67334 0.5 0.5 0 0 0 0.67386-0.21291l0.73742-1.418 1.4206 0.73846a0.5 0.5 0 0 0 0.67386-0.21291 0.5 0.5 0 0 0-0.21291-0.67386l-1.4196-0.73949 0.73794-1.4185a0.5 0.5 0 0 0-0.21291-0.67386 0.5 0.5 0 0 0-0.22841-0.0568z" color="#000000" color-rendering="auto" dominant-baseline="auto" fill="#fff" image-rendering="auto" shape-rendering="auto" solid-color="#000000" stop-color="#000000" style="font-feature-settings:normal;font-variant-alternates:normal;font-variant-caps:normal;font-variant-east-asian:normal;font-variant-ligatures:normal;font-variant-numeric:normal;font-variant-position:normal;font-variation-settings:normal;inline-size:0;isolation:auto;mix-blend-mode:normal;shape-margin:0;shape-padding:0;text-decoration-color:#000000;text-decoration-line:none;text-decoration-style:solid;text-indent:0;text-orientation:mixed;text-transform:none;white-space:normal"/>
  <text fill="#000000" font-family="sans-serif" font-size="10.583px" style="line-height:1.25;shape-inside:url(#rect957);white-space:pre" xml:space="preserve"/>
 </g>
</svg>
