<svg width="137.44mm" height="69.714mm" version="1.1" viewBox="0 0 137.44 69.714" xmlns="http://www.w3.org/2000/svg">
 <g transform="translate(-38.459 -56.615)">
  <g stroke="#fff">
   <g>
    <path d="m67.33 110.38q-1.2892 0-2.3277-0.78784-1.0385-0.82365-1.6115-2.1845-0.57298-1.3966-0.57298-3.1156 0-3.9034 2.65-5.4791 2.6858-1.6115 6.2311-1.8264 0-1.9338-0.25067-2.8649-0.25067-0.93108-1.2176-0.93108-0.82365 0-1.2534 0.6446-0.42973 0.6446-0.53716 1.6473l-4.9061-0.85946q0.35811-2.7574 2.2561-3.9392 1.898-1.1818 4.4406-1.1818 3.2588 0 4.8703 1.7189 1.6473 1.7189 1.6473 4.4764v10.421q0 1.6831 0.53717 3.5811l-4.9061 0.42973-0.57297-2.471q-0.6446 1.146-1.898 1.9338-1.2534 0.78784-2.5784 0.78784zm2.3277-3.5811q0.60879 0 1.0027-0.2865 0.42973-0.2865 1.0385-0.93108v-5.5865q-1.7906 0-2.8649 0.9669-1.0743 0.9669-1.0743 3.0081 0 1.3608 0.46554 2.1128 0.50135 0.71622 1.4324 0.71622z" stroke-width="5" style="paint-order:stroke markers fill;white-space:pre"/>
    <path d="m82.506 90.185 5.0135-0.42973v2.5784q1.5399-1.3608 3.0081-2.077 1.504-0.75203 2.7574-0.75203 1.898 0 3.0797 1.3966 1.2176 1.3608 1.2176 3.6885v15.112l-5.0136 0.42973v-13.644q0-2.6858-1.8263-2.6858-0.6088 0-1.3608 0.35811-0.71623 0.35811-1.8622 1.0385v14.503l-5.0135 0.42973z" stroke-width="5.5" style="paint-order:stroke markers fill;white-space:pre"/>
    <g stroke-width="5">
     <path d="m107.37 110.38q-1.2892 0-2.3277-0.78784-1.0385-0.82365-1.6115-2.1845-0.57297-1.3966-0.57297-3.1156 0-3.9034 2.65-5.4791 2.6858-1.6115 6.2311-1.8264 0-1.9338-0.25074-2.8649-0.25073-0.93108-1.2176-0.93108-0.82363 0-1.2534 0.6446-0.42974 0.6446-0.53717 1.6473l-4.9061-0.85946q0.35813-2.7574 2.2561-3.9392 1.898-1.1818 4.4406-1.1818 3.2588 0 4.8703 1.7189 1.6473 1.7189 1.6473 4.4764v10.421q0 1.6831 0.53717 3.5811l-4.9061 0.42973-0.57297-2.471q-0.6446 1.146-1.898 1.9338-1.2534 0.78784-2.5784 0.78784zm2.3277-3.5811q0.6088 0 1.0027-0.2865 0.42974-0.2865 1.0385-0.93108v-5.5865q-1.7906 0-2.8649 0.9669-1.0743 0.9669-1.0743 3.0081 0 1.3608 0.46557 2.1128 0.50133 0.71622 1.4324 0.71622z" style="paint-order:stroke markers fill;white-space:pre"/>
     <path d="m129.83 110.31q-2.4351 0-4.1182-1.2176-1.6831-1.2534-1.6831-4.4048v-11.137h-2.7933l0.21486-3.796h2.7216l0.50136-4.3689 4.3689-0.60879v4.9777h4.1541l-0.21487 3.796h-3.9034v11.101q0 1.0743 0.53717 1.5399 0.53713 0.46555 1.5757 0.46555 0.57297 0 1.9338-0.21487v3.4737q-0.14313 0.0358-1.146 0.21486-0.9669 0.17907-2.1487 0.17907z" style="paint-order:stroke markers fill;white-space:pre"/>
     <path d="m133.6 118.15c0.21589-3.51 1.0748-4.4092 1.0748-4.4092-0.32314-0.24336-0.67556-0.67484-0.67556-0.67484 1.3252-1.1499 4.5945-1.4712 6.0591-1.3213 0 0-0.96115 0.71411-2.2251 2.3191-1.264 1.605-2.4073 6.0006 0.53906 6.0524 2.9464 0.0519 3.6236-9.1359 3.6236-11.094v-1.0027l-5.7656-18.013 5.4433-0.25067 2.8291 12.641 2.6858-12.534 4.548-0.0358s-4.4493 17.106-5.1568 19.732c-0.7075 2.6254-2.8297 14.212-7.5931 14.269-4.7634 0.0577-5.6024-2.169-5.3867-5.6791z" style="paint-order:stroke markers fill;white-space:pre"/>
     <path d="m165.95 110.38-4.0824-10.027-1.6473 2.1845v7.3771h-5.0136v-26.214l5.0136-0.6446v13.322l5.121-6.625h5.4433l-5.6581 7.2696 5.2642 11.853z" style="paint-order:stroke markers fill;white-space:pre"/>
    </g>
   </g>
   <path transform="scale(.26458)" d="m319.35 223.43c-0.69066 0.0106-1.3945 0.0335-2.1113 0.0684-3.8231 0.18594-7.997 0.74145-12.342 1.8828-12.317 3.2356-20.603 8.4942-31.115 16.166-2.784 2.0318-5.5671 4.1806-8.3301 6.4141-28.505-1.6186-59.522 2.4304-81.123 29.689-3.0536 3.8534-4.9281 7.9475-4.6953 12.277 0.23276 4.3299 2.7914 8.0499 5.9356 10.488 5.7899 4.4902 13.855 6.5486 23.309 7.9141-11.073 17.281-17.571 35.339-19.852 42.268l-6.6016-2.6406a5.6693 5.6693 0 0 0-2.2891-0.40625 5.6693 5.6693 0 0 0-5.0781 3.5566 5.6693 5.6693 0 0 0 3.1523 7.375l0.46094 0.18359c-0.26811 0.43084-0.50823 0.88072-0.69336 1.3672l-22.604 59.396c-1.923 5.0531 1.6218 11.059 7.9492 13.467l3.377 1.2852c6.3274 2.408 12.97 0.27773 14.893-4.7754l10.258-26.953a17.375 17.375 0 0 0 2.3652 0.16406 17.375 17.375 0 0 0 17.375-17.375 17.375 17.375 0 0 0-7.6992-14.43l0.30469-0.80079c0.12695-0.33358 0.22659-0.67308 0.30664-1.0137l0.85742 0.34375a5.6693 5.6693 0 0 0 7.3672-3.1602 5.6693 5.6693 0 0 0-3.1602-7.3672l-4.6894-1.875c17.172-7.8549 26.956-18.988 30.416-30.117 1.8017-5.7951 1.5883-11.588-0.13282-16.641 15.237 0.15751 30.809-0.9725 42.562-2.6934 25.274-3.7004 39.602-1.3712 47.223 1.418 3.8102 1.3946 5.9668 2.8877 7.1152 3.875 1.1484 0.9873 1.0059 0.95312 1.0059 0.95312a5.6693 5.6693 0 0 0 7.7129 2.1914 5.6693 5.6693 0 0 0 2.1934-7.7129s-1.3081-2.1206-3.5215-4.0234c-2.2134-1.9028-5.6167-4.1011-10.607-5.9277-9.9814-3.6533-26.212-5.8733-52.76-1.9863-5.6438 0.82632-12.403 1.5028-19.609 1.9531 2.5306-1.3898 5.0377-2.894 7.4668-4.5371 8.2606-5.5876 15.728-12.567 19.865-21.244 1.6298-3.4185 2.5215-7.1635 2.707-11.045 8.1401 1.0095 16.093 2.0993 23.564 2.8281 12.748 1.2434 24.26 1.6415 33.795-2.627 8.0101-3.5858 13.027-7.4757 14.527-13.244 0.75023-2.8842 0.22588-5.8862-0.88672-8.1856-1.1126-2.2993-2.6848-4.0629-4.3613-5.5664-4.1342-3.7075-9.2731-6.2181-12.615-7.6055l-0.0156-0.16797-3.5371-1.1582s-0.0496-0.0133-0.0508-0.0137a5.6693 5.6693 0 0 0-0.31445-0.0899c-0.88115-0.27658-7.5946-2.2912-17.27-2.1426zm0.0273 11.338c1.6358-6e-3 3.1103 0.0981 4.5644 0.20118-2.6747 2.0854-5.5771 4.3147-9.5234 6.1641-7.3896 3.463-16.105 5.5355-25.01 3.6465 5.7347-3.6472 11.221-6.5602 18.367-8.4375 3.495-0.91814 6.8432-1.3654 9.9062-1.5273 0.58605-0.031 1.15-0.0449 1.6953-0.0469zm18.203 3.4785c2.6739 1.2535 5.984 3.0004 7.998 4.8066 0.9449 0.84738 1.5328 1.642 1.7344 2.0586 0.20156 0.41656 0.14514 0.29097 0.11718 0.39844-0.0559 0.21494-1.5673 2.7779-8.1934 5.7441-5.2946 2.3702-13.919 2.799-24.432 2.0039 1.531-0.57498 3.0147-1.1952 4.4277-1.8574 6.0731-2.846 11.105-6.3364 14.777-9.5879 1.3778-1.2201 2.5662-2.3966 3.5703-3.5664zm-84.863 20.701c-14.666 13.419-27.826 28.036-36.385 38.895-1.2034-0.12383-2.3866-0.25667-3.5391-0.40625-9.6576-1.2534-17.43-3.7709-20.279-5.9805-1.4246-1.1048-1.5341-1.5688-1.5644-2.1328-0.0303-0.56406 0.24697-2.0816 2.2656-4.6289 15.88-20.038 37.025-25.519 59.502-25.746zm17.232 0.6875c1.74 0.14004 3.4774 0.29695 5.2109 0.46875 0.0522 2.5222-0.41268 4.9916-1.5918 7.4648-2.815 5.9044-8.7938 11.872-15.982 16.734-7.1887 4.8625-15.507 8.6484-22.412 10.762-0.55056 0.1685-0.87901 0.15579-1.4102 0.30273 9.9495-11.529 22.487-24.332 36.186-35.732zm-47.955 50.057c0.22111 0.0147 0.44031 0.0309 0.66211 0.0449 2.7051 2.8282 3.7239 7.5522 1.8066 13.719-2.1034 6.7652-8.4982 14.869-21.045 21.43 3.601-9.5476 9.1414-21.875 18.576-35.193z" color="#000000" color-rendering="auto" dominant-baseline="auto" image-rendering="auto" shape-rendering="auto" solid-color="#000000" stop-color="#000000" stroke-linecap="square" stroke-width="18.898" style="font-feature-settings:normal;font-variant-alternates:normal;font-variant-caps:normal;font-variant-east-asian:normal;font-variant-ligatures:normal;font-variant-numeric:normal;font-variant-position:normal;font-variation-settings:normal;inline-size:0;isolation:auto;mix-blend-mode:normal;paint-order:markers stroke fill;shape-margin:0;shape-padding:0;text-decoration-color:#000000;text-decoration-line:none;text-decoration-style:solid;text-indent:0;text-orientation:mixed;text-transform:none;white-space:normal"/>
  </g>
  <path d="m52.275 99.605a0.5 0.5 0 0 0-0.44545 0.26975l-0.73742 1.418-1.4185-0.73845a0.5 0.5 0 0 0-0.23048-0.0548 0.5 0.5 0 0 0-0.44545 0.26768 0.5 0.5 0 0 0 0.21291 0.67593l1.4196 0.73794-0.73794 1.4185a0.5 0.5 0 0 0 0.21291 0.67334 0.5 0.5 0 0 0 0.67386-0.21291l0.73742-1.418 1.4206 0.73846a0.5 0.5 0 0 0 0.67386-0.21291 0.5 0.5 0 0 0-0.21291-0.67386l-1.4196-0.73949 0.73794-1.4185a0.5 0.5 0 0 0-0.21291-0.67386 0.5 0.5 0 0 0-0.22841-0.0568z" color="#000000" color-rendering="auto" dominant-baseline="auto" fill="#fff" image-rendering="auto" shape-rendering="auto" solid-color="#000000" stop-color="#000000" style="font-feature-settings:normal;font-variant-alternates:normal;font-variant-caps:normal;font-variant-east-asian:normal;font-variant-ligatures:normal;font-variant-numeric:normal;font-variant-position:normal;font-variation-settings:normal;inline-size:0;isolation:auto;mix-blend-mode:normal;shape-margin:0;shape-padding:0;text-decoration-color:#000000;text-decoration-line:none;text-decoration-style:solid;text-indent:0;text-orientation:mixed;text-transform:none;white-space:normal"/>
  <text fill="#000000" font-family="sans-serif" font-size="10.583px" style="line-height:1.25;shape-inside:url(#rect957);white-space:pre" xml:space="preserve"/>
 </g>
</svg>
